<svg version="1.1" id="Layer_1" xmlns="http://www.w3.org/2000/svg" xmlns:xlink="http://www.w3.org/1999/xlink" x="0px" y="0px"
	 width="100%" viewBox="0 0 1242 1660" enable-background="new 0 0 1242 1660" xml:space="preserve">
<path fill="#000000" opacity="1.000000" stroke="none" 
	d="
M559.000000,1661.000000 
	C372.666687,1661.000000 186.833405,1661.000000 1.000050,1661.000000 
	C1.000000,1384.333374 1.000000,1107.666870 1.000000,831.000244 
	C1.000000,554.333618 1.000000,277.667023 1.000000,1.000298 
	C414.999786,1.000198 828.999573,1.000198 1242.999512,1.000099 
	C1242.999756,554.333008 1242.999756,1107.666016 1242.999878,1660.999512 
	C1015.166687,1661.000000 787.333313,1661.000000 559.000000,1661.000000 
M285.140411,512.039062 
	C279.266663,517.023132 273.581238,522.253601 267.468170,526.924438 
	C260.881622,531.956970 253.894470,536.465210 246.686218,540.603271 
	C240.717072,538.360962 235.502106,535.382935 228.303040,535.080750 
	C221.567368,534.798035 218.862503,538.313416 214.595718,540.857727 
	C210.005707,543.594727 208.462326,547.884460 207.392960,553.454346 
	C207.299255,555.772400 207.112930,558.091125 207.128830,560.408447 
	C207.181030,568.005737 207.410400,575.602905 207.382950,583.199463 
	C207.322815,599.837402 207.091614,616.474792 207.032364,633.112732 
	C206.961884,652.906433 206.866409,672.701721 207.030243,692.494202 
	C207.162323,708.449585 207.862961,724.400696 207.966171,740.355896 
	C208.383743,804.900085 208.715454,869.444946 208.980118,933.989929 
	C209.103775,964.150024 209.146072,994.312073 208.914322,1024.470825 
	C208.846268,1033.327148 214.285126,1038.400757 220.330887,1042.943359 
	C224.867188,1046.351929 230.256439,1048.612305 235.208374,1051.483276 
	C245.522308,1057.462891 255.759933,1063.574585 266.099396,1069.509277 
	C278.636658,1076.705566 291.299683,1083.683594 303.807251,1090.930542 
	C312.726868,1096.098389 321.389557,1101.711670 330.334900,1106.832764 
	C337.877045,1111.150635 345.688660,1114.995239 353.326904,1119.148804 
	C357.349213,1121.336182 361.252655,1123.741699 365.215027,1126.039795 
	C372.707947,1130.385498 380.197266,1134.737671 387.701752,1139.063354 
	C395.526093,1143.573486 403.441406,1147.931152 411.179108,1152.584717 
	C418.985535,1157.279785 426.508209,1162.451660 434.366089,1167.054688 
	C442.316345,1171.711548 450.558533,1175.867310 458.611755,1180.352173 
	C468.817078,1186.035522 478.928894,1191.886963 489.139313,1197.560913 
	C502.391174,1204.924927 515.695923,1212.193726 528.990906,1219.479736 
	C530.571045,1220.345825 532.226013,1221.077393 533.858093,1221.846191 
	C538.846436,1224.195557 543.840515,1226.532715 549.465332,1229.237671 
	C561.165833,1234.132935 572.525818,1240.226929 584.639343,1243.667725 
	C608.077026,1250.325073 632.179382,1250.776367 656.203430,1246.786377 
	C662.613647,1245.721802 668.744934,1242.977905 675.774536,1240.983154 
	C676.543579,1240.938843 677.312561,1240.894653 678.631531,1240.835205 
	C679.093384,1240.562256 679.555298,1240.289307 680.679626,1240.020508 
	C681.121277,1240.011841 681.562866,1240.003174 682.447937,1239.819824 
	C682.724792,1239.647705 682.940186,1239.417969 683.868164,1239.019287 
	C692.829102,1235.378052 701.801208,1231.764160 710.745117,1228.081543 
	C714.113098,1226.695068 717.582458,1225.437012 720.715027,1223.619751 
	C728.324036,1219.205444 735.692322,1214.376831 743.288879,1209.939819 
	C751.656494,1205.052368 760.228333,1200.514893 768.604065,1195.640991 
	C776.487366,1191.053467 784.184265,1186.146484 792.047302,1181.523071 
	C803.897888,1174.555054 815.872681,1167.797485 827.698547,1160.788452 
	C837.401550,1155.037720 846.863953,1148.877197 856.620300,1143.221558 
	C864.985596,1138.372192 873.761475,1134.227417 882.093384,1129.325195 
	C892.816833,1123.015869 903.276306,1116.258423 913.853271,1109.699951 
	C922.616577,1104.265991 931.282959,1098.666138 940.178040,1093.456909 
	C950.937256,1087.155884 961.909912,1081.220337 972.757446,1075.068848 
	C984.871948,1068.198730 996.945251,1061.256104 1009.045349,1054.360718 
	C1016.192932,1050.287476 1023.301086,1046.140381 1030.529541,1042.215210 
	C1039.323364,1037.440063 1043.900757,1029.925781 1043.916260,1020.184448 
	C1044.049072,936.380310 1044.027588,852.575989 1043.967163,768.771667 
	C1043.958374,756.657043 1043.378418,744.543579 1043.279053,732.427856 
	C1043.169922,719.113770 1043.341797,705.797607 1043.330933,692.482361 
	C1043.324951,685.110962 1043.041260,677.737305 1043.158569,670.369019 
	C1043.324829,659.929626 1043.957520,649.494751 1043.985596,639.056946 
	C1044.005371,631.658813 1043.177368,624.262085 1043.047485,616.859131 
	C1042.871094,606.807800 1043.004761,596.751099 1042.996704,586.696716 
	C1042.988281,576.033081 1043.010742,565.369141 1042.917725,554.706177 
	C1042.900879,552.767151 1042.393066,550.832275 1042.062988,548.178833 
	C1041.684692,546.800537 1041.306274,545.422302 1040.696777,543.391235 
	C1038.383789,540.913330 1036.078003,538.428711 1033.756714,535.958679 
	C1028.064697,529.901978 1019.516968,528.380554 1012.021851,532.010925 
	C1004.309082,535.746765 996.567322,539.422729 988.098755,543.117493 
	C985.685669,541.979065 983.272583,540.840637 980.516418,539.146790 
	C977.096680,536.658264 973.744446,534.069275 970.236755,531.711548 
	C967.189880,529.663513 963.941711,527.917480 960.826721,525.967468 
	C951.178650,519.927673 941.551636,513.854126 931.966370,507.066681 
	C930.517761,505.751221 929.229492,504.176422 927.593201,503.164337 
	C919.772583,498.327087 911.857544,493.642426 903.563171,488.320587 
	C896.446472,483.124054 889.459351,477.736511 882.171204,472.792694 
	C876.548218,468.978455 870.609314,465.610687 864.673523,462.289825 
	C863.092529,461.405304 860.671692,460.596771 859.217102,461.186249 
	C855.301941,462.772858 851.504578,464.849457 848.021667,467.254761 
	C843.219482,470.571106 838.732544,474.346832 834.139587,477.962616 
	C826.407227,484.049957 818.602295,490.050690 811.012878,496.312103 
	C806.178345,500.300720 801.677490,504.693848 797.048401,508.122925 
	C796.987793,507.080719 796.927185,506.038513 797.032410,504.170013 
	C797.675842,499.641266 798.788635,495.122101 798.881409,490.582123 
	C799.284546,470.850311 798.263916,451.309204 793.083435,432.022461 
	C789.842529,419.956787 785.063660,408.665131 779.785706,397.478027 
	C778.316711,394.364410 777.132263,391.057312 775.258972,388.205780 
	C771.095886,381.868561 766.926147,375.478394 762.120667,369.634796 
	C755.925415,362.101044 749.530701,354.626312 742.423462,347.980072 
	C736.536194,342.474731 729.693420,337.897705 722.907532,333.471100 
	C714.756653,328.154022 706.713745,322.094818 697.731628,318.762085 
	C683.833679,313.605347 669.754333,308.763000 654.784424,306.623993 
	C637.645020,304.175018 620.607910,303.181030 603.467346,305.109436 
	C587.592834,306.895477 572.150879,310.759277 557.169861,316.382446 
	C552.715332,318.054474 547.879395,319.015930 543.804565,321.333710 
	C533.577576,327.150848 523.315918,333.041565 513.773010,339.885529 
	C505.730499,345.653473 498.555847,352.669373 491.241638,359.398773 
	C487.663757,362.690613 484.132507,366.251038 481.475464,370.280334 
	C476.007294,378.572662 470.486389,386.946838 466.192810,395.867645 
	C460.821167,407.028442 456.216278,418.617798 452.145813,430.323059 
	C449.696106,437.367615 448.786530,444.964630 447.382629,452.350983 
	C446.118469,459.002136 444.166534,465.711212 444.213043,472.382904 
	C444.305176,485.596893 442.318542,498.906525 446.805054,512.035828 
	C449.149902,518.897949 449.199951,526.544250 449.796600,533.181763 
	C444.422485,528.512329 439.142975,523.728333 433.653900,519.198181 
	C423.280518,510.637085 412.832367,502.164673 402.312012,493.785034 
	C399.553375,491.587799 396.346466,489.963379 393.466766,487.906036 
	C387.998291,483.999268 382.706177,479.841095 377.174500,476.028595 
	C371.967834,472.440125 366.346375,469.433350 361.272797,465.677124 
	C355.391174,461.322571 349.401550,460.429291 344.451996,464.268494 
	C342.823395,465.531738 341.963562,467.777374 340.347900,469.067291 
	C330.221405,477.152100 319.980591,485.093719 309.104553,492.951050 
	C305.974487,495.652252 302.899872,498.421234 299.701080,501.038483 
	C295.135010,504.774384 290.477905,508.399078 285.140411,512.039062 
z"/>
<path fill="#00231D" opacity="1.000000" stroke="none" 
	d="
M207.913452,552.803528 
	C208.462326,547.884460 210.005707,543.594727 214.595718,540.857727 
	C218.862503,538.313416 221.567368,534.798035 228.303040,535.080750 
	C235.502106,535.382935 240.717072,538.360962 246.998779,541.204224 
	C249.509140,543.227234 251.706940,544.649292 253.922607,546.062866 
	C253.940475,546.054382 253.932404,546.085510 254.139923,546.362915 
	C257.549652,548.338135 260.751892,550.036072 264.210022,551.990234 
	C293.283936,567.818604 322.129578,583.339844 350.910370,598.980469 
	C370.132446,609.426514 389.386444,619.824768 408.387573,630.662659 
	C420.218842,637.411011 431.632324,644.896057 443.185883,652.126343 
	C471.477173,669.831116 499.703949,687.639282 528.033325,705.282776 
	C539.961670,712.711853 552.083374,719.830444 564.336182,727.356567 
	C568.127808,728.725769 571.700378,729.828552 575.547363,731.150696 
	C577.028625,732.154419 578.162598,733.457703 579.453979,733.638916 
	C587.967041,734.833618 596.513916,735.786865 605.425781,736.884277 
	C607.238647,736.627014 608.675537,736.304260 610.497437,735.883057 
	C614.278992,735.850098 617.675476,735.915649 621.436768,736.140991 
	C626.180725,736.065002 630.559998,735.829285 635.378052,735.681885 
	C641.497009,734.783936 647.177124,733.797607 653.246277,732.877869 
	C657.423523,731.618347 661.211731,730.292175 665.302246,728.940308 
	C665.777283,728.625549 665.950134,728.336487 666.076050,728.075989 
	C666.029053,728.104553 666.087524,728.197754 666.460938,728.246704 
	C680.568359,720.340576 694.427612,712.591858 707.995178,704.362427 
	C718.142151,698.207764 727.913147,691.433228 738.090271,685.082581 
	C739.076111,684.895447 739.857056,684.619812 740.565430,684.216675 
	C780.483826,661.499390 820.239258,638.489929 860.361877,616.139465 
	C889.135010,600.111511 918.448303,585.055786 947.420105,569.380615 
	C960.145935,562.495300 972.666382,555.224243 985.156006,547.916199 
	C986.766541,546.973877 987.629089,544.753296 988.838196,543.124817 
	C996.567322,539.422729 1004.309082,535.746765 1012.021851,532.010925 
	C1019.516968,528.380554 1028.064697,529.901978 1033.756714,535.958679 
	C1036.078003,538.428711 1038.383789,540.913330 1040.430420,543.703674 
	C1036.083374,543.932251 1034.801880,546.303284 1034.688843,550.130615 
	C1029.975464,553.712769 1025.881104,557.734436 1021.033875,560.372253 
	C1010.527466,566.089844 999.448547,570.754944 988.938660,576.466553 
	C962.760620,590.693115 936.811401,605.339844 910.692444,619.676025 
	C884.278320,634.174133 857.709961,648.391724 831.318604,662.930786 
	C795.022217,682.926514 758.753662,702.975525 722.631897,723.283875 
	C710.044373,730.360779 697.959534,738.328247 685.574951,745.772278 
	C682.386658,747.688782 681.863525,750.334839 681.868652,753.759888 
	C681.954956,811.236755 681.936707,868.713806 681.941406,926.190796 
	C681.949890,1030.482056 681.958191,1134.773438 681.973999,1239.297119 
	C681.981384,1239.529663 682.004517,1239.994507 682.004517,1239.994629 
	C681.562866,1240.003174 681.121277,1240.011841 680.168579,1239.836670 
	C679.132263,1240.052002 678.606934,1240.451172 678.081604,1240.850342 
	C677.312561,1240.894653 676.543579,1240.938843 675.110596,1240.750244 
	C666.995239,1241.836060 659.526917,1243.066650 652.095764,1244.491455 
	C635.092102,1247.751587 618.181763,1247.255615 601.140076,1244.358887 
	C587.447327,1242.031494 574.435852,1237.808838 561.641479,1232.643311 
	C551.011536,1228.351807 551.000000,1228.380493 550.999939,1216.897461 
	C550.999084,1075.579956 551.004028,934.262390 550.949707,792.944824 
	C550.948730,790.539612 550.230835,788.134705 549.709106,785.353821 
	C549.074463,774.859436 548.083252,764.731689 548.270508,754.625732 
	C548.379700,748.728516 546.256653,744.779663 541.910522,741.505981 
	C539.784607,739.904663 537.652222,738.277771 535.365295,736.929626 
	C515.291809,725.095947 495.247528,713.210449 475.068237,701.559082 
	C448.689880,686.328369 422.240662,671.219055 395.740936,656.200378 
	C365.043243,638.802612 334.226868,621.614197 303.519043,604.234192 
	C272.858490,586.880981 240.353882,572.905640 210.767822,553.582153 
	C209.982040,553.068970 208.872177,553.051941 207.913452,552.803528 
z"/>
<path fill="#006C40" opacity="1.000000" stroke="none" 
	d="
M207.653198,553.128906 
	C208.872177,553.051941 209.982040,553.068970 210.767822,553.582153 
	C240.353882,572.905640 272.858490,586.880981 303.519043,604.234192 
	C334.226868,621.614197 365.043243,638.802612 395.740936,656.200378 
	C422.240662,671.219055 448.689880,686.328369 475.068237,701.559082 
	C495.247528,713.210449 515.291809,725.095947 535.365295,736.929626 
	C537.652222,738.277771 539.784607,739.904663 541.910522,741.505981 
	C546.256653,744.779663 548.379700,748.728516 548.270508,754.625732 
	C548.083252,764.731689 549.074463,774.859436 549.664551,785.853516 
	C549.557983,829.209167 549.237488,871.689209 549.203064,914.169495 
	C549.182861,939.151672 549.845886,964.134705 549.799561,989.116638 
	C549.701477,1042.095459 549.326050,1095.073730 549.092834,1148.052368 
	C548.974182,1174.993042 548.917175,1201.933838 548.832336,1228.874634 
	C543.840515,1226.532715 538.846436,1224.195557 533.858093,1221.846191 
	C532.226013,1221.077393 530.571045,1220.345825 528.990906,1219.479736 
	C515.695923,1212.193726 502.391174,1204.924927 489.139313,1197.560913 
	C478.928894,1191.886963 468.817078,1186.035522 458.611755,1180.352173 
	C450.558533,1175.867310 442.316345,1171.711548 434.366089,1167.054688 
	C426.508209,1162.451660 418.985535,1157.279785 411.179108,1152.584717 
	C403.441406,1147.931152 395.526093,1143.573486 387.701752,1139.063354 
	C380.197266,1134.737671 372.707947,1130.385498 365.215027,1126.039795 
	C361.252655,1123.741699 357.349213,1121.336182 353.326904,1119.148804 
	C345.688660,1114.995239 337.877045,1111.150635 330.334900,1106.832764 
	C321.389557,1101.711670 312.726868,1096.098389 303.807251,1090.930542 
	C291.299683,1083.683594 278.636658,1076.705566 266.099396,1069.509277 
	C255.759933,1063.574585 245.522308,1057.462891 235.208374,1051.483276 
	C230.256439,1048.612305 224.867188,1046.351929 220.330887,1042.943359 
	C214.285126,1038.400757 208.846268,1033.327148 208.914322,1024.470825 
	C209.146072,994.312073 209.103775,964.150024 208.980118,933.989929 
	C208.715454,869.444946 208.383743,804.900085 207.966171,740.355896 
	C207.862961,724.400696 207.162323,708.449585 207.030243,692.494202 
	C206.866409,672.701721 206.961884,652.906433 207.032364,633.112732 
	C207.091614,616.474792 207.322815,599.837402 207.382950,583.199463 
	C207.410400,575.602905 207.181030,568.005737 207.128830,560.408447 
	C207.112930,558.091125 207.299255,555.772400 207.653198,553.128906 
M500.859772,1061.500000 
	C500.615112,1036.516357 500.212433,1011.533081 500.156586,986.549011 
	C500.011749,921.754211 500.002167,856.959045 500.021210,792.164062 
	C500.022095,789.150696 499.211823,787.180176 496.472321,785.719788 
	C490.745880,782.667297 485.199158,779.279419 479.503235,776.167297 
	C465.763916,768.660278 451.866974,761.434753 438.240570,753.729736 
	C412.149048,738.976379 386.318329,723.759399 360.161530,709.124084 
	C332.990967,693.921448 305.573395,679.159790 278.233124,664.261719 
	C274.980713,662.489441 271.535004,661.071960 267.819183,659.320435 
	C267.373413,661.238220 267.006989,662.174133 266.957092,663.126587 
	C266.339294,674.918030 265.385406,686.708435 265.277496,698.505981 
	C265.131287,714.486877 265.785675,730.473267 265.843475,746.458191 
	C265.976685,783.289734 265.974915,820.121826 265.995026,856.953735 
	C266.020172,902.952148 266.025543,948.950500 265.989746,994.948914 
	C265.987274,998.101318 266.271912,1000.585388 269.583893,1002.384949 
	C283.629089,1010.016968 297.442108,1018.076050 311.480743,1025.720459 
	C354.775055,1049.295776 398.191528,1072.647095 441.440033,1096.305664 
	C459.404022,1106.132690 477.058990,1116.524170 494.866882,1126.637207 
	C496.349762,1127.479248 497.928009,1128.153442 500.859406,1129.590820 
	C500.859406,1106.348389 500.859406,1084.424194 500.859772,1061.500000 
z"/>
<path fill="#006C40" opacity="1.000000" stroke="none" 
	d="
M681.966614,1239.064697 
	C681.958191,1134.773438 681.949890,1030.482056 681.941406,926.190796 
	C681.936707,868.713806 681.954956,811.236755 681.868652,753.759888 
	C681.863525,750.334839 682.386658,747.688782 685.574951,745.772278 
	C697.959534,738.328247 710.044373,730.360779 722.631897,723.283875 
	C758.753662,702.975525 795.022217,682.926514 831.318604,662.930786 
	C857.709961,648.391724 884.278320,634.174133 910.692444,619.676025 
	C936.811401,605.339844 962.760620,590.693115 988.938660,576.466553 
	C999.448547,570.754944 1010.527466,566.089844 1021.033875,560.372253 
	C1025.881104,557.734436 1029.975464,553.712769 1035.088867,550.123413 
	C1037.881714,549.583984 1039.996826,549.239746 1042.111938,548.895508 
	C1042.393066,550.832275 1042.900879,552.767151 1042.917725,554.706177 
	C1043.010742,565.369141 1042.988281,576.033081 1042.996704,586.696716 
	C1043.004761,596.751099 1042.871094,606.807800 1043.047485,616.859131 
	C1043.177368,624.262085 1044.005371,631.658813 1043.985596,639.056946 
	C1043.957520,649.494751 1043.324829,659.929626 1043.158569,670.369019 
	C1043.041260,677.737305 1043.324951,685.110962 1043.330933,692.482361 
	C1043.341797,705.797607 1043.169922,719.113770 1043.279053,732.427856 
	C1043.378418,744.543579 1043.958374,756.657043 1043.967163,768.771667 
	C1044.027588,852.575989 1044.049072,936.380310 1043.916260,1020.184448 
	C1043.900757,1029.925781 1039.323364,1037.440063 1030.529541,1042.215210 
	C1023.301086,1046.140381 1016.192932,1050.287476 1009.045349,1054.360718 
	C996.945251,1061.256104 984.871948,1068.198730 972.757446,1075.068848 
	C961.909912,1081.220337 950.937256,1087.155884 940.178040,1093.456909 
	C931.282959,1098.666138 922.616577,1104.265991 913.853271,1109.699951 
	C903.276306,1116.258423 892.816833,1123.015869 882.093384,1129.325195 
	C873.761475,1134.227417 864.985596,1138.372192 856.620300,1143.221558 
	C846.863953,1148.877197 837.401550,1155.037720 827.698547,1160.788452 
	C815.872681,1167.797485 803.897888,1174.555054 792.047302,1181.523071 
	C784.184265,1186.146484 776.487366,1191.053467 768.604065,1195.640991 
	C760.228333,1200.514893 751.656494,1205.052368 743.288879,1209.939819 
	C735.692322,1214.376831 728.324036,1219.205444 720.715027,1223.619751 
	C717.582458,1225.437012 714.113098,1226.695068 710.745117,1228.081543 
	C701.801208,1231.764160 692.829102,1235.378052 683.199707,1239.047729 
	C682.343079,1239.072388 682.154846,1239.068481 681.966614,1239.064697 
M950.368225,666.900696 
	C946.233093,669.058350 942.053955,671.136108 937.969604,673.386169 
	C907.915405,689.942871 877.875305,706.525330 847.840088,723.116638 
	C813.437256,742.120605 779.215088,761.462769 744.537598,779.951172 
	C734.738525,785.175598 731.235779,791.982239 731.650024,802.547607 
	C732.184998,816.191956 731.775330,829.873047 731.784485,843.538330 
	C731.850403,941.694458 731.916321,1039.850586 732.005737,1138.006714 
	C732.007874,1140.360962 732.283325,1142.714844 732.474304,1145.751953 
	C736.578369,1143.604004 739.881836,1142.040771 743.026184,1140.204956 
	C799.414124,1107.282959 855.783081,1074.328491 912.155579,1041.380005 
	C937.467224,1026.586060 962.805542,1011.836853 988.031616,996.898315 
	C989.875732,995.806335 991.843750,993.472473 992.128906,991.483032 
	C992.856445,986.407166 992.816956,981.199463 992.817078,976.044495 
	C992.820007,890.053406 992.782043,804.062317 992.750366,718.071228 
	C992.750000,717.071594 992.696411,716.071960 992.696838,715.072327 
	C992.705200,693.264343 992.732910,671.456360 992.695068,649.648438 
	C992.692505,648.202576 992.197449,646.757690 991.781067,644.494690 
	C977.604309,652.174133 964.319458,659.370483 950.368225,666.900696 
z"/>
<path fill="#48A657" opacity="1.000000" stroke="none" 
	d="
M988.468506,543.121155 
	C987.629089,544.753296 986.766541,546.973877 985.156006,547.916199 
	C972.666382,555.224243 960.145935,562.495300 947.420105,569.380615 
	C918.448303,585.055786 889.135010,600.111511 860.361877,616.139465 
	C820.239258,638.489929 780.483826,661.499390 740.565430,684.216675 
	C739.857056,684.619812 739.076111,684.895447 738.266846,684.788818 
	C750.042725,675.177124 761.870544,665.993896 773.720825,656.839722 
	C805.765625,632.085266 839.232422,609.470032 874.547546,589.611023 
	C906.925781,571.403503 940.236877,555.193359 975.397705,542.100342 
	C977.451904,541.270081 979.155701,540.486145 980.859497,539.702209 
	C983.272583,540.840637 985.685669,541.979065 988.468506,543.121155 
z"/>
<path fill="#24A25A" opacity="1.000000" stroke="none" 
	d="
M450.286438,533.836365 
	C449.199951,526.544250 449.149902,518.897949 446.805054,512.035828 
	C442.318542,498.906525 444.305176,485.596893 444.213043,472.382904 
	C444.166534,465.711212 446.118469,459.002136 447.382629,452.350983 
	C448.786530,444.964630 449.696106,437.367615 452.145813,430.323059 
	C456.216278,418.617798 460.821167,407.028442 466.192810,395.867645 
	C470.486389,386.946838 476.007294,378.572662 481.475464,370.280334 
	C484.132507,366.251038 487.663757,362.690613 491.241638,359.398773 
	C498.555847,352.669373 505.730499,345.653473 513.773010,339.885529 
	C523.315918,333.041565 533.577576,327.150848 543.804565,321.333710 
	C547.879395,319.015930 552.715332,318.054474 557.169861,316.382446 
	C572.150879,310.759277 587.592834,306.895477 603.467346,305.109436 
	C620.607910,303.181030 637.645020,304.175018 654.784424,306.623993 
	C669.754333,308.763000 683.833679,313.605347 697.731628,318.762085 
	C706.713745,322.094818 714.756653,328.154022 722.907532,333.471100 
	C729.693420,337.897705 736.536194,342.474731 742.423462,347.980072 
	C749.530701,354.626312 755.925415,362.101044 762.120667,369.634796 
	C766.926147,375.478394 771.095886,381.868561 775.258972,388.205780 
	C777.132263,391.057312 778.316711,394.364410 779.785706,397.478027 
	C785.063660,408.665131 789.842529,419.956787 793.083435,432.022461 
	C798.263916,451.309204 799.284546,470.850311 798.881409,490.582123 
	C798.788635,495.122101 797.675842,499.641266 796.738281,504.820740 
	C795.626831,506.316803 794.809448,507.162140 793.990479,507.553162 
	C794.653748,498.999359 796.248169,490.846008 795.782043,482.812164 
	C794.919495,467.944977 793.460510,453.049774 791.097900,438.351410 
	C789.091248,425.867493 784.000122,414.261353 778.679504,402.681488 
	C771.712646,387.518616 762.509888,373.987976 751.809387,361.504486 
	C736.733032,343.916229 717.731812,331.089966 696.636658,322.087219 
	C669.903320,310.678284 641.884277,304.921967 612.503784,307.894745 
	C596.457092,309.518341 580.710449,311.795227 565.274780,317.108276 
	C550.705811,322.123077 536.895874,327.894104 524.056213,336.651245 
	C512.160828,344.764313 501.029053,353.531006 491.406097,364.156891 
	C481.441010,375.160522 472.987793,387.263977 466.594818,400.716248 
	C458.852875,417.007233 453.376770,433.982239 450.463043,451.844055 
	C447.044373,472.801086 445.019745,493.606140 450.538971,514.595947 
	C452.585876,522.380371 453.142426,530.556702 454.083801,538.445190 
	C452.621460,536.836182 451.453949,535.336243 450.286438,533.836365 
z"/>
<path fill="#011015" opacity="1.000000" stroke="none" 
	d="
M549.148804,1229.056152 
	C548.917175,1201.933838 548.974182,1174.993042 549.092834,1148.052368 
	C549.326050,1095.073730 549.701477,1042.095459 549.799561,989.116638 
	C549.845886,964.134705 549.182861,939.151672 549.203064,914.169495 
	C549.237488,871.689209 549.557983,829.209167 549.802795,786.229370 
	C550.230835,788.134705 550.948730,790.539612 550.949707,792.944824 
	C551.004028,934.262390 550.999084,1075.579956 550.999939,1216.897461 
	C551.000000,1228.380493 551.011536,1228.351807 561.641479,1232.643311 
	C574.435852,1237.808838 587.447327,1242.031494 601.140076,1244.358887 
	C618.181763,1247.255615 635.092102,1247.751587 652.095764,1244.491455 
	C659.526917,1243.066650 666.995239,1241.836060 674.725464,1240.760986 
	C668.744934,1242.977905 662.613647,1245.721802 656.203430,1246.786377 
	C632.179382,1250.776367 608.077026,1250.325073 584.639343,1243.667725 
	C572.525818,1240.226929 561.165833,1234.132935 549.148804,1229.056152 
z"/>
<path fill="#DAF399" opacity="1.000000" stroke="none" 
	d="
M450.041504,533.509033 
	C451.453949,535.336243 452.621460,536.836182 454.093201,538.429199 
	C454.397430,538.522278 454.422913,538.536011 454.419739,538.711243 
	C454.416534,538.886475 454.683716,539.113342 454.748352,539.366333 
	C454.868378,539.784363 454.923798,539.949402 454.748535,540.300781 
	C453.305878,539.786560 451.951569,539.253174 450.903442,538.360352 
	C437.010651,526.525818 423.727020,513.885376 409.153870,502.963806 
	C391.780762,489.943756 373.318512,478.375977 355.309784,466.206146 
	C352.332397,464.194061 349.870758,463.735107 346.564636,466.666321 
	C336.887787,475.246033 326.838837,483.422089 316.672699,491.422058 
	C314.238586,493.337555 314.561676,494.654175 315.446533,496.563324 
	C314.365326,496.344421 313.642426,496.213898 312.612457,495.946350 
	C311.462799,494.900513 310.620209,493.991638 309.777618,493.082764 
	C319.980591,485.093719 330.221405,477.152100 340.347900,469.067291 
	C341.963562,467.777374 342.823395,465.531738 344.451996,464.268494 
	C349.401550,460.429291 355.391174,461.322571 361.272797,465.677124 
	C366.346375,469.433350 371.967834,472.440125 377.174500,476.028595 
	C382.706177,479.841095 387.998291,483.999268 393.466766,487.906036 
	C396.346466,489.963379 399.553375,491.587799 402.312012,493.785034 
	C412.832367,502.164673 423.280518,510.637085 433.653900,519.198181 
	C439.142975,523.728333 444.422485,528.512329 450.041504,533.509033 
z"/>
<path fill="#DAF399" opacity="1.000000" stroke="none" 
	d="
M797.027039,508.905609 
	C801.677490,504.693848 806.178345,500.300720 811.012878,496.312103 
	C818.602295,490.050690 826.407227,484.049957 834.139587,477.962616 
	C838.732544,474.346832 843.219482,470.571106 848.021667,467.254761 
	C851.504578,464.849457 855.301941,462.772858 859.217102,461.186249 
	C860.671692,460.596771 863.092529,461.405304 864.673523,462.289825 
	C870.609314,465.610687 876.548218,468.978455 882.171204,472.792694 
	C889.459351,477.736511 896.446472,483.124054 903.602966,488.861084 
	C903.095947,489.979370 902.549133,490.557129 901.647949,491.143951 
	C900.606995,491.331390 899.920349,491.509735 899.160522,491.302795 
	C897.752808,489.295197 896.702515,487.257629 895.037476,486.118439 
	C884.803650,479.116028 874.504333,472.200439 864.025330,465.574646 
	C862.450073,464.578644 859.347473,464.410736 857.757935,465.300507 
	C850.988464,469.089783 843.967529,472.755524 838.055115,477.685608 
	C823.558044,489.773956 809.652161,502.569733 795.407288,514.964783 
	C794.271973,515.952637 792.358032,516.045593 790.971436,516.324097 
	C791.761230,515.392090 792.385437,514.690308 793.232300,513.891174 
	C793.742981,513.604187 793.916138,513.339417 794.245483,512.825928 
	C795.353394,511.403381 796.190186,510.154480 797.027039,508.905609 
z"/>
<path fill="#DAF399" opacity="1.000000" stroke="none" 
	d="
M980.687988,539.424500 
	C979.155701,540.486145 977.451904,541.270081 975.383545,541.713257 
	C973.747742,539.621399 972.838196,537.323425 971.148132,536.205688 
	C957.127197,526.932861 942.961914,517.878296 929.107788,508.565704 
	C930.222290,508.180359 931.069397,507.987030 931.916443,507.793701 
	C941.551636,513.854126 951.178650,519.927673 960.826721,525.967468 
	C963.941711,527.917480 967.189880,529.663513 970.236755,531.711548 
	C973.744446,534.069275 977.096680,536.658264 980.687988,539.424500 
z"/>
<path fill="#DAF399" opacity="1.000000" stroke="none" 
	d="
M253.904739,546.071289 
	C251.706940,544.649292 249.509140,543.227234 247.196716,541.503723 
	C253.894470,536.465210 260.881622,531.956970 267.468170,526.924438 
	C273.581238,522.253601 279.266663,517.023132 285.544373,512.344971 
	C286.303406,513.107849 286.658508,513.564697 286.840240,514.307251 
	C275.044769,523.879517 263.422668,533.166138 251.787567,542.463196 
	C252.462234,543.612915 253.183487,544.842102 253.904739,546.071289 
z"/>
<path fill="#2CAC60" opacity="1.000000" stroke="none" 
	d="
M931.941406,507.430206 
	C931.069397,507.987030 930.222290,508.180359 928.804321,508.572296 
	C927.830750,508.810730 927.428040,508.850525 926.959900,508.558044 
	C925.221313,506.461365 923.815552,504.277557 921.825989,503.009674 
	C915.332764,498.871521 908.626526,495.067444 902.002258,491.134857 
	C902.549133,490.557129 903.095947,489.979370 903.809448,489.152588 
	C911.857544,493.642426 919.772583,498.327087 927.593201,503.164337 
	C929.229492,504.176422 930.517761,505.751221 931.941406,507.430206 
z"/>
<path fill="#2CAC60" opacity="1.000000" stroke="none" 
	d="
M287.013580,514.021606 
	C286.658508,513.564697 286.303406,513.107849 285.903992,512.361084 
	C290.477905,508.399078 295.135010,504.774384 299.701080,501.038483 
	C302.899872,498.421234 305.974487,495.652252 309.441101,493.016907 
	C310.620209,493.991638 311.462799,494.900513 312.349731,496.178955 
	C303.254425,499.928040 297.454987,507.726318 290.076874,513.435913 
	C289.978271,513.512207 290.005005,513.750427 289.612183,514.013672 
	C288.505310,514.083374 287.759430,514.052490 287.013580,514.021606 
z"/>
<path fill="#003C28" opacity="1.000000" stroke="none" 
	d="
M1042.087402,548.537170 
	C1039.996826,549.239746 1037.881714,549.583984 1035.366577,549.935425 
	C1034.801880,546.303284 1036.083374,543.932251 1040.545898,544.030029 
	C1041.306274,545.422302 1041.684692,546.800537 1042.087402,548.537170 
z"/>
<path fill="#3F9D53" opacity="1.000000" stroke="none" 
	d="
M797.037720,508.514282 
	C796.190186,510.154480 795.353394,511.403381 794.245178,512.407593 
	C793.984680,510.771027 793.995605,509.379211 794.003845,507.992584 
	C794.001160,507.997772 793.992126,508.007507 793.992126,508.007507 
	C794.809448,507.162140 795.626831,506.316803 796.655396,505.233887 
	C796.927185,506.038513 796.987793,507.080719 797.037720,508.514282 
z"/>
<path fill="#003826" opacity="1.000000" stroke="none" 
	d="
M678.356567,1240.842773 
	C678.606934,1240.451172 679.132263,1240.052002 679.837402,1239.834595 
	C679.555298,1240.289307 679.093384,1240.562256 678.356567,1240.842773 
z"/>
<path fill="#003826" opacity="1.000000" stroke="none" 
	d="
M681.973999,1239.297119 
	C682.154846,1239.068481 682.343079,1239.072388 682.812744,1239.103516 
	C682.940186,1239.417969 682.724792,1239.647705 682.226196,1239.907227 
	C682.004517,1239.994507 681.981384,1239.529663 681.973999,1239.297119 
z"/>
<path fill="#DDE589" opacity="1.000000" stroke="none" 
	d="
M315.804871,496.651672 
	C314.561676,494.654175 314.238586,493.337555 316.672699,491.422058 
	C326.838837,483.422089 336.887787,475.246033 346.564636,466.666321 
	C349.870758,463.735107 352.332397,464.194061 355.309784,466.206146 
	C373.318512,478.375977 391.780762,489.943756 409.153870,502.963806 
	C423.727020,513.885376 437.010651,526.525818 450.903442,538.360352 
	C451.951569,539.253174 453.305878,539.786560 455.048950,540.432434 
	C479.846100,562.941650 502.518188,587.010498 523.596497,612.574219 
	C532.149902,622.947876 540.572693,633.429321 549.054626,644.241699 
	C550.735046,647.608459 552.159119,650.778687 554.140869,653.550232 
	C562.726379,665.557434 571.974426,677.122375 580.026733,689.470886 
	C588.457764,702.400146 595.890869,715.988159 603.515259,729.427185 
	C604.697266,731.510620 604.571045,734.336365 605.049805,736.818787 
	C596.513916,735.786865 587.967041,734.833618 579.453979,733.638916 
	C578.162598,733.457703 577.028625,732.154419 575.502930,730.787598 
	C574.332336,728.784119 573.595459,727.277771 572.611511,725.955200 
	C559.700378,708.601807 547.264343,690.862671 533.687561,674.044983 
	C516.872742,653.216370 500.310181,631.959961 481.494995,613.017578 
	C443.584930,574.851257 400.850494,542.520569 354.077393,515.798584 
	C341.710236,508.733032 328.583069,502.997772 315.804871,496.651672 
z"/>
<path fill="#DDE589" opacity="1.000000" stroke="none" 
	d="
M790.805908,516.554443 
	C792.358032,516.045593 794.271973,515.952637 795.407288,514.964783 
	C809.652161,502.569733 823.558044,489.773956 838.055115,477.685608 
	C843.967529,472.755524 850.988464,469.089783 857.757935,465.300507 
	C859.347473,464.410736 862.450073,464.578644 864.025330,465.574646 
	C874.504333,472.200439 884.803650,479.116028 895.037476,486.118439 
	C896.702515,487.257629 897.752808,489.295197 898.913147,491.509583 
	C893.416443,494.843719 887.822632,497.165283 882.814026,500.394501 
	C842.284790,526.524780 803.928528,555.515808 769.490112,589.349976 
	C733.778992,624.434509 701.774597,662.684448 673.790039,704.267212 
	C667.207703,714.047913 659.855408,723.310364 652.857300,732.811279 
	C647.177124,733.797607 641.497009,734.783936 635.223206,735.355957 
	C631.771118,734.458557 628.912720,733.975464 625.568237,733.410156 
	C626.632507,730.761475 627.367371,728.009888 628.755310,725.640747 
	C634.288208,716.195862 639.799194,706.724548 645.736633,697.533264 
	C655.262329,682.787170 665.156372,668.279358 674.772217,653.590637 
	C675.590149,652.341309 675.488403,650.489929 675.989258,648.623779 
	C699.822693,615.336914 725.271423,583.789307 753.134644,554.258789 
	C765.322205,541.341980 778.226868,529.101868 790.805908,516.554443 
z"/>
<path fill="#DDE589" opacity="1.000000" stroke="none" 
	d="
M927.025391,508.890320 
	C927.428040,508.850525 927.830750,508.810730 928.536865,508.764313 
	C942.961914,517.878296 957.127197,526.932861 971.148132,536.205688 
	C972.838196,537.323425 973.747742,539.621399 975.033203,541.759521 
	C940.236877,555.193359 906.925781,571.403503 874.547546,589.611023 
	C839.232422,609.470032 805.765625,632.085266 773.720825,656.839722 
	C761.870544,665.993896 750.042725,675.177124 738.028076,684.640869 
	C727.913147,691.433228 718.142151,698.207764 707.995178,704.362427 
	C694.427612,712.591858 680.568359,720.340576 666.405762,727.889160 
	C668.103699,724.712402 670.156372,721.881836 672.368042,719.181396 
	C702.918762,681.879639 735.815430,646.759949 771.368042,614.202576 
	C786.704224,600.158386 802.136719,586.028931 818.816284,573.682129 
	C852.712891,548.590637 888.104553,525.720520 927.025391,508.890320 
z"/>
<path fill="#DDE589" opacity="1.000000" stroke="none" 
	d="
M286.840240,514.307251 
	C287.759430,514.052490 288.505310,514.083374 289.953796,514.107300 
	C292.336365,515.095398 293.930328,516.290222 295.709076,517.055542 
	C324.355316,529.380066 351.659424,544.262695 378.387360,560.256958 
	C409.980774,579.162781 437.209290,603.781189 465.469360,627.015625 
	C497.580414,653.416138 525.333496,684.285339 553.619019,714.577209 
	C557.329590,718.551025 560.627930,722.909729 564.117188,727.090149 
	C552.083374,719.830444 539.961670,712.711853 528.033325,705.282776 
	C499.703949,687.639282 471.477173,669.831116 443.185883,652.126343 
	C431.632324,644.896057 420.218842,637.411011 408.387573,630.662659 
	C389.386444,619.824768 370.132446,609.426514 350.910370,598.980469 
	C322.129578,583.339844 293.283936,567.818604 264.144043,551.663574 
	C260.525574,549.415527 257.228973,547.750549 253.932404,546.085510 
	C253.932404,546.085510 253.940475,546.054382 253.922607,546.062866 
	C253.183487,544.842102 252.462234,543.612915 251.787567,542.463196 
	C263.422668,533.166138 275.044769,523.879517 286.840240,514.307251 
z"/>
<path fill="#48A858" opacity="1.000000" stroke="none" 
	d="
M564.336182,727.356567 
	C560.627930,722.909729 557.329590,718.551025 553.619019,714.577209 
	C525.333496,684.285339 497.580414,653.416138 465.469360,627.015625 
	C437.209290,603.781189 409.980774,579.162781 378.387360,560.256958 
	C351.659424,544.262695 324.355316,529.380066 295.709076,517.055542 
	C293.930328,516.290222 292.336365,515.095398 290.314819,514.006714 
	C290.005005,513.750427 289.978271,513.512207 290.076874,513.435913 
	C297.454987,507.726318 303.254425,499.928040 312.656860,496.315918 
	C313.642426,496.213898 314.365326,496.344421 315.446533,496.563293 
	C328.583069,502.997772 341.710236,508.733032 354.077393,515.798584 
	C400.850494,542.520569 443.584930,574.851257 481.494995,613.017578 
	C500.310181,631.959961 516.872742,653.216370 533.687561,674.044983 
	C547.264343,690.862671 559.700378,708.601807 572.611511,725.955200 
	C573.595459,727.277771 574.332336,728.784119 575.228516,730.568115 
	C571.700378,729.828552 568.127808,728.725769 564.336182,727.356567 
z"/>
<path fill="#48A858" opacity="1.000000" stroke="none" 
	d="
M926.959900,508.558044 
	C888.104553,525.720520 852.712891,548.590637 818.816284,573.682129 
	C802.136719,586.028931 786.704224,600.158386 771.368042,614.202576 
	C735.815430,646.759949 702.918762,681.879639 672.368042,719.181396 
	C670.156372,721.881836 668.103699,724.712402 666.032349,727.840149 
	C666.087524,728.197754 666.029053,728.104553 665.801880,728.097656 
	C665.383118,728.382507 665.191528,728.674255 665.000000,728.966003 
	C661.211731,730.292175 657.423523,731.618347 653.246277,732.877930 
	C659.855408,723.310364 667.207703,714.047913 673.790039,704.267212 
	C701.774597,662.684448 733.778992,624.434509 769.490112,589.349976 
	C803.928528,555.515808 842.284790,526.524780 882.814026,500.394501 
	C887.822632,497.165283 893.416443,494.843719 898.986450,491.894836 
	C899.920349,491.509735 900.606995,491.331390 901.647949,491.143951 
	C908.626526,495.067444 915.332764,498.871521 921.825989,503.009674 
	C923.815552,504.277557 925.221313,506.461365 926.959900,508.558044 
z"/>
<path fill="#000000" opacity="1.000000" stroke="none" 
	d="
M621.072021,735.981262 
	C617.675476,735.915649 614.278992,735.850098 610.370361,735.541138 
	C608.468384,732.595703 607.228271,729.803162 605.661133,727.208069 
	C600.441650,718.564758 595.071411,710.012695 589.823853,701.386169 
	C585.774170,694.728882 582.102478,687.823669 577.758545,681.367859 
	C571.779663,672.482361 565.325256,663.916870 559.451782,655.148682 
	C560.846069,655.083191 561.863281,655.083191 563.028076,655.360962 
	C563.779724,655.688232 564.383728,655.737732 565.317322,655.865540 
	C566.095093,655.908936 566.543274,655.874146 567.252563,655.946716 
	C568.012451,656.283447 568.511353,656.512756 569.374146,656.825684 
	C570.479980,656.877075 571.221802,656.844788 572.323608,657.009155 
	C580.248047,658.795105 587.746643,661.149353 595.391357,661.808899 
	C609.724060,663.045410 624.136719,663.501648 638.526489,663.842834 
	C642.868652,663.945740 647.288513,662.796570 651.594849,661.861755 
	C656.830994,660.725037 661.984741,659.208618 667.047852,658.204834 
	C665.231140,661.257202 663.644592,664.033325 661.829956,666.651245 
	C657.027832,673.579346 651.862671,680.270569 647.336731,687.371399 
	C642.438354,695.056580 637.893616,702.987793 633.574341,711.016052 
	C629.166626,719.208557 625.220337,727.649231 621.072021,735.981262 
z"/>
<path fill="#DAF399" opacity="1.000000" stroke="none" 
	d="
M621.436768,736.140991 
	C625.220337,727.649231 629.166626,719.208557 633.574341,711.016052 
	C637.893616,702.987793 642.438354,695.056580 647.336731,687.371399 
	C651.862671,680.270569 657.027832,673.579346 661.829956,666.651245 
	C663.644592,664.033325 665.231140,661.257202 667.357910,658.205627 
	C668.212341,657.264893 668.630554,656.671753 669.384888,656.009888 
	C671.751953,653.600220 673.782898,651.259277 675.813904,648.918274 
	C675.488403,650.489929 675.590149,652.341309 674.772217,653.590637 
	C665.156372,668.279358 655.262329,682.787170 645.736633,697.533264 
	C639.799194,706.724548 634.288208,716.195862 628.755310,725.640747 
	C627.367371,728.009888 626.632507,730.761475 625.568237,733.410156 
	C628.912720,733.975464 631.771118,734.458557 634.784424,735.267639 
	C630.559998,735.829285 626.180725,736.065002 621.436768,736.140991 
z"/>
<path fill="#DAF399" opacity="1.000000" stroke="none" 
	d="
M559.074585,655.214233 
	C565.325256,663.916870 571.779663,672.482361 577.758545,681.367859 
	C582.102478,687.823669 585.774170,694.728882 589.823853,701.386169 
	C595.071411,710.012695 600.441650,718.564758 605.661133,727.208069 
	C607.228271,729.803162 608.468384,732.595703 609.985413,735.639648 
	C608.675537,736.304260 607.238647,736.627014 605.425781,736.884277 
	C604.571045,734.336365 604.697266,731.510620 603.515259,729.427185 
	C595.890869,715.988159 588.457764,702.400146 580.026733,689.470886 
	C571.974426,677.122375 562.726379,665.557434 554.140869,653.550232 
	C552.159119,650.778687 550.735046,647.608459 549.316650,644.426147 
	C550.893555,645.862793 552.208252,647.494995 553.669922,649.411377 
	C554.699097,650.555664 555.581421,651.415710 556.669006,652.536499 
	C557.607727,653.602844 558.341187,654.408569 559.074585,655.214233 
z"/>
<path fill="#DAF399" opacity="1.000000" stroke="none" 
	d="
M254.139923,546.362915 
	C257.228973,547.750549 260.525574,549.415527 263.888123,551.407227 
	C260.751892,550.036072 257.549652,548.338135 254.139923,546.362915 
z"/>
<path fill="#DDE589" opacity="1.000000" stroke="none" 
	d="
M665.302246,728.940308 
	C665.191528,728.674255 665.383118,728.382507 665.848877,728.069092 
	C665.950134,728.336487 665.777283,728.625549 665.302246,728.940308 
z"/>
<path fill="#4AA65D" opacity="1.000000" stroke="none" 
	d="
M500.859589,1062.000000 
	C500.859406,1084.424194 500.859406,1106.348389 500.859406,1129.590820 
	C497.928009,1128.153442 496.349762,1127.479248 494.866882,1126.637207 
	C477.058990,1116.524170 459.404022,1106.132690 441.440033,1096.305664 
	C398.191528,1072.647095 354.775055,1049.295776 311.480743,1025.720459 
	C297.442108,1018.076050 283.629089,1010.016968 269.583893,1002.384949 
	C266.271912,1000.585388 265.987274,998.101318 265.989746,994.948914 
	C266.025543,948.950500 266.020172,902.952148 265.995026,856.953735 
	C265.974915,820.121826 265.976685,783.289734 265.843475,746.458191 
	C265.785675,730.473267 265.131287,714.486877 265.277496,698.505981 
	C265.385406,686.708435 266.339294,674.918030 266.957092,663.126587 
	C267.006989,662.174133 267.373413,661.238220 267.819183,659.320435 
	C271.535004,661.071960 274.980713,662.489441 278.233124,664.261719 
	C305.573395,679.159790 332.990967,693.921448 360.161530,709.124084 
	C386.318329,723.759399 412.149048,738.976379 438.240570,753.729736 
	C451.866974,761.434753 465.763916,768.660278 479.503235,776.167297 
	C485.199158,779.279419 490.745880,782.667297 496.472321,785.719788 
	C499.211823,787.180176 500.022095,789.150696 500.021210,792.164062 
	C500.002167,856.959045 500.011749,921.754211 500.156586,986.549011 
	C500.212433,1011.533081 500.615112,1036.516357 500.859589,1062.000000 
z"/>
<path fill="#65BC64" opacity="1.000000" stroke="none" 
	d="
M950.701416,666.733765 
	C964.319458,659.370483 977.604309,652.174133 991.781067,644.494690 
	C992.197449,646.757690 992.692505,648.202576 992.695068,649.648438 
	C992.732910,671.456360 992.705200,693.264343 992.696838,715.072327 
	C992.696411,716.071960 992.750000,717.071594 992.750366,718.071228 
	C992.782043,804.062317 992.820007,890.053406 992.817078,976.044495 
	C992.816956,981.199463 992.856445,986.407166 992.128906,991.483032 
	C991.843750,993.472473 989.875732,995.806335 988.031616,996.898315 
	C962.805542,1011.836853 937.467224,1026.586060 912.155579,1041.380005 
	C855.783081,1074.328491 799.414124,1107.282959 743.026184,1140.204956 
	C739.881836,1142.040771 736.578369,1143.604004 732.474304,1145.751953 
	C732.283325,1142.714844 732.007874,1140.360962 732.005737,1138.006714 
	C731.916321,1039.850586 731.850403,941.694458 731.784485,843.538330 
	C731.775330,829.873047 732.184998,816.191956 731.650024,802.547607 
	C731.235779,791.982239 734.738525,785.175598 744.537598,779.951172 
	C779.215088,761.462769 813.437256,742.120605 847.840088,723.116638 
	C877.875305,706.525330 907.915405,689.942871 937.969604,673.386169 
	C942.053955,671.136108 946.233093,669.058350 950.701416,666.733765 
M865.507935,934.009888 
	C835.436707,953.729797 805.421753,973.536316 775.255859,993.110413 
	C767.419373,998.195435 763.198730,1005.412415 761.239319,1014.111572 
	C759.261902,1022.890869 765.208252,1030.015015 774.068726,1028.994873 
	C778.129211,1028.527466 782.350220,1026.525024 785.808289,1024.194580 
	C836.070557,990.321228 886.273926,956.359436 936.335815,922.190857 
	C945.512817,915.927368 954.319458,909.019714 962.694519,901.718323 
	C968.290771,896.839539 968.482056,886.644348 964.209045,881.602539 
	C958.849792,875.279114 954.357849,874.794922 945.901123,880.395447 
	C919.246277,898.047852 892.693665,915.854675 865.507935,934.009888 
M793.312805,812.832947 
	C786.971191,816.823425 780.632141,820.817993 774.287170,824.803223 
	C768.292358,828.568420 764.954590,834.193420 763.273193,840.870850 
	C761.588074,847.562866 764.217041,854.373657 769.258118,858.255249 
	C775.053833,862.717957 779.645996,859.875793 784.619812,856.612976 
	C804.388550,843.644592 824.248108,830.813843 844.118042,818.000305 
	C881.061340,794.176514 918.033203,770.397095 954.999146,746.608337 
	C960.721069,742.926086 964.440674,737.783325 966.265869,731.266907 
	C967.940430,725.288086 965.994568,720.486389 961.333740,716.615662 
	C957.044189,713.053345 952.623413,713.956665 948.331421,716.446899 
	C942.141907,720.038025 936.015320,723.743347 929.943359,727.530640 
	C884.592529,755.817017 839.261780,784.135620 793.312805,812.832947 
M898.259827,864.769165 
	C916.362488,852.581299 934.632019,840.629822 952.458374,828.050476 
	C957.321655,824.618652 961.347778,819.653687 964.862488,814.750427 
	C968.766968,809.303406 967.077759,803.470032 961.059753,797.394470 
	C956.882568,793.177490 953.533630,793.031555 947.163391,796.838928 
	C945.448425,797.863892 943.777832,798.963989 942.099121,800.048706 
	C910.344482,820.567749 878.570557,841.057007 846.845581,861.621765 
	C822.664246,877.296448 798.588196,893.133728 774.369995,908.751038 
	C768.054077,912.823975 764.330200,918.335327 763.192566,925.651367 
	C762.194580,932.069641 763.690002,937.716858 769.359741,941.424072 
	C774.740173,944.942139 779.856140,943.261414 784.653076,939.807495 
	C785.463684,939.223816 786.313538,938.694519 787.147461,938.143494 
	C823.976746,913.805786 860.806335,889.468567 898.259827,864.769165 
z"/>
<path fill="#3F9D53" opacity="1.000000" stroke="none" 
	d="
M553.522949,649.127197 
	C552.208252,647.494995 550.893555,645.862793 549.316895,644.046143 
	C540.572693,633.429321 532.149902,622.947876 523.596497,612.574219 
	C502.518188,587.010498 479.846100,562.941650 455.279633,540.246155 
	C454.923798,539.949402 454.868378,539.784363 454.912170,539.253357 
	C454.815186,538.770264 454.619049,538.653137 454.422913,538.536011 
	C454.422913,538.536011 454.397430,538.522278 454.388062,538.538269 
	C453.142426,530.556702 452.585876,522.380371 450.538971,514.595947 
	C445.019745,493.606140 447.044373,472.801086 450.463043,451.844055 
	C453.376770,433.982239 458.852875,417.007233 466.594818,400.716248 
	C472.987793,387.263977 481.441010,375.160522 491.406097,364.156891 
	C501.029053,353.531006 512.160828,344.764313 524.056213,336.651245 
	C536.895874,327.894104 550.705811,322.123077 565.274780,317.108276 
	C580.710449,311.795227 596.457092,309.518341 612.503784,307.894745 
	C641.884277,304.921967 669.903320,310.678284 696.636658,322.087219 
	C717.731812,331.089966 736.733032,343.916229 751.809387,361.504486 
	C762.509888,373.987976 771.712646,387.518616 778.679504,402.681488 
	C784.000122,414.261353 789.091248,425.867493 791.097900,438.351410 
	C793.460510,453.049774 794.919495,467.944977 795.782043,482.812164 
	C796.248169,490.846008 794.653748,498.999359 793.990479,507.553162 
	C793.992126,508.007507 794.001160,507.997772 793.753967,508.283508 
	C793.341064,510.375702 793.175354,512.182129 793.009644,513.988586 
	C792.385437,514.690308 791.761230,515.392090 790.971436,516.324097 
	C778.226868,529.101868 765.322205,541.341980 753.134644,554.258789 
	C725.271423,583.789307 699.822693,615.336914 675.989258,648.623779 
	C673.782898,651.259277 671.751953,653.600220 669.269958,655.650330 
	C667.184387,655.083984 665.413574,654.261230 663.938904,654.628113 
	C657.687256,656.184021 651.628906,658.848999 645.307739,659.731018 
	C626.596130,662.341858 607.939514,660.956299 589.446289,657.319336 
	C581.159668,655.689636 572.917725,653.833130 564.633728,652.189209 
	C563.383911,651.941223 562.014954,652.293396 560.051697,652.404846 
	C561.476501,653.753906 562.178467,654.418518 562.880432,655.083191 
	C561.863281,655.083191 560.846069,655.083191 559.451782,655.148682 
	C558.341187,654.408569 557.607727,653.602844 556.960693,652.461731 
	C555.872375,651.126587 554.697693,650.126892 553.522949,649.127197 
M599.521851,592.357056 
	C600.009827,585.941833 600.497803,579.526672 601.869507,572.981567 
	C604.249939,572.999634 606.630432,573.017700 609.211304,573.288940 
	C609.211304,573.288940 609.646851,573.354919 609.646851,573.354919 
	C609.646851,573.354919 609.989441,573.034058 610.875488,572.922729 
	C613.254578,572.983582 615.633728,573.044495 618.151917,573.914185 
	C618.430603,579.024292 618.671448,584.136780 619.000366,589.243652 
	C619.252258,593.154663 619.615173,597.058533 620.147583,601.773560 
	C625.794312,602.169128 631.446838,602.497742 637.085693,602.984253 
	C640.751282,603.300415 642.140930,601.889160 642.024841,598.134949 
	C641.813965,591.314636 642.168457,584.477173 641.969116,577.656067 
	C641.865417,574.109192 643.269165,573.054199 646.623535,572.990906 
	C650.934998,572.909607 655.292175,572.616516 659.532898,571.867188 
	C678.378601,568.537170 694.267578,560.855591 701.202515,541.371704 
	C709.190430,518.929443 706.457825,493.619720 681.277466,480.138123 
	C679.153625,479.001038 677.226257,477.497009 674.363281,475.605713 
	C694.153503,461.134003 697.073242,442.072388 690.013306,421.239960 
	C682.473328,398.991180 664.359436,391.302460 642.037537,390.708496 
	C642.037537,381.048676 642.037537,371.957214 642.037537,361.895966 
	C634.359436,362.304230 627.155762,362.687256 619.462036,363.718353 
	C619.317566,369.996033 619.108276,376.273071 619.045349,382.551575 
	C618.970398,390.023438 619.024841,390.023956 611.439880,390.024536 
	C599.969543,390.025421 600.080383,390.023895 599.918396,378.479095 
	C599.845215,373.269348 599.230652,368.067200 598.141052,362.515320 
	C591.044434,362.515320 583.947754,362.515320 576.147461,362.515320 
	C576.147461,372.084167 576.147461,381.424744 576.147461,391.312561 
	C562.203674,391.312561 548.959045,391.312561 536.061646,391.312561 
	C536.061646,401.333130 535.951294,410.780396 536.227905,420.216278 
	C536.256409,421.188507 538.559265,422.841797 539.865601,422.901917 
	C546.183105,423.192566 552.537781,423.334381 558.845703,422.961609 
	C563.659424,422.677155 565.127441,424.228729 565.102661,429.116913 
	C564.930481,463.099487 565.053528,497.083527 565.069458,531.067078 
	C565.074402,541.715393 564.871826,541.906494 553.831787,541.958801 
	C548.057495,541.986206 542.282959,541.963623 536.335938,541.963623 
	C535.871216,552.584595 535.434570,562.563049 534.994019,572.632263 
	C537.033997,572.777771 538.184875,572.930359 539.335938,572.930969 
	C550.330688,572.937012 561.328552,573.059631 572.318542,572.825378 
	C576.000671,572.746826 577.420105,573.911804 577.367615,577.584167 
	C577.298645,582.405823 577.701965,587.232422 577.711792,592.057373 
	C577.734070,602.958557 577.686523,602.958679 588.696350,602.959961 
	C598.655945,602.961121 598.655945,602.961121 599.521851,592.357056 
z"/>
<path fill="#24A25A" opacity="1.000000" stroke="none" 
	d="
M454.419739,538.711243 
	C454.619049,538.653137 454.815186,538.770264 454.847534,539.000366 
	C454.683716,539.113342 454.416534,538.886475 454.419739,538.711243 
z"/>
<path fill="#24A25A" opacity="1.000000" stroke="none" 
	d="
M793.232300,513.891174 
	C793.175354,512.182129 793.341064,510.375702 793.756653,508.278320 
	C793.995605,509.379211 793.984680,510.771027 793.974060,512.581177 
	C793.916138,513.339417 793.742981,513.604187 793.232300,513.891174 
z"/>
<path fill="#24A25A" opacity="1.000000" stroke="none" 
	d="
M563.028076,655.360962 
	C562.178467,654.418518 561.476501,653.753906 560.051697,652.404846 
	C562.014954,652.293396 563.383911,651.941223 564.633728,652.189209 
	C572.917725,653.833130 581.159668,655.689636 589.446289,657.319336 
	C607.939514,660.956299 626.596130,662.341858 645.307739,659.731018 
	C651.628906,658.848999 657.687256,656.184021 663.938904,654.628113 
	C665.413574,654.261230 667.184387,655.083984 668.933838,655.718994 
	C668.630554,656.671753 668.212341,657.264893 667.484131,657.857239 
	C661.984741,659.208618 656.830994,660.725037 651.594849,661.861755 
	C647.288513,662.796570 642.868652,663.945740 638.526489,663.842834 
	C624.136719,663.501648 609.724060,663.045410 595.391357,661.808899 
	C587.746643,661.149353 580.248047,658.795105 572.113892,656.830078 
	C570.699524,656.550293 569.854858,656.646179 569.010193,656.742065 
	C568.511353,656.512756 568.012451,656.283447 567.084595,655.780640 
	C566.099609,655.600525 565.543701,655.693909 564.987793,655.787292 
	C564.383728,655.737732 563.779724,655.688232 563.028076,655.360962 
z"/>
<path fill="#3F9D53" opacity="1.000000" stroke="none" 
	d="
M569.374146,656.825684 
	C569.854858,656.646179 570.699524,656.550293 571.753906,656.633484 
	C571.221802,656.844788 570.479980,656.877075 569.374146,656.825684 
z"/>
<path fill="#3F9D53" opacity="1.000000" stroke="none" 
	d="
M565.317322,655.865540 
	C565.543701,655.693909 566.099609,655.600525 566.823486,655.673218 
	C566.543274,655.874146 566.095093,655.908936 565.317322,655.865540 
z"/>
<path fill="#24A25A" opacity="1.000000" stroke="none" 
	d="
M553.669922,649.411377 
	C554.697693,650.126892 555.872375,651.126587 556.755371,652.201050 
	C555.581421,651.415710 554.699097,650.555664 553.669922,649.411377 
z"/>
<path fill="#016C40" opacity="1.000000" stroke="none" 
	d="
M865.804688,933.805786 
	C892.693665,915.854675 919.246277,898.047852 945.901123,880.395447 
	C954.357849,874.794922 958.849792,875.279114 964.209045,881.602539 
	C968.482056,886.644348 968.290771,896.839539 962.694519,901.718323 
	C954.319458,909.019714 945.512817,915.927368 936.335815,922.190857 
	C886.273926,956.359436 836.070557,990.321228 785.808289,1024.194580 
	C782.350220,1026.525024 778.129211,1028.527466 774.068726,1028.994873 
	C765.208252,1030.015015 759.261902,1022.890869 761.239319,1014.111572 
	C763.198730,1005.412415 767.419373,998.195435 775.255859,993.110413 
	C805.421753,973.536316 835.436707,953.729797 865.804688,933.805786 
z"/>
<path fill="#016C40" opacity="1.000000" stroke="none" 
	d="
M793.618774,812.638550 
	C839.261780,784.135620 884.592529,755.817017 929.943359,727.530640 
	C936.015320,723.743347 942.141907,720.038025 948.331421,716.446899 
	C952.623413,713.956665 957.044189,713.053345 961.333740,716.615662 
	C965.994568,720.486389 967.940430,725.288086 966.265869,731.266907 
	C964.440674,737.783325 960.721069,742.926086 954.999146,746.608337 
	C918.033203,770.397095 881.061340,794.176514 844.118042,818.000305 
	C824.248108,830.813843 804.388550,843.644592 784.619812,856.612976 
	C779.645996,859.875793 775.053833,862.717957 769.258118,858.255249 
	C764.217041,854.373657 761.588074,847.562866 763.273193,840.870850 
	C764.954590,834.193420 768.292358,828.568420 774.287170,824.803223 
	C780.632141,820.817993 786.971191,816.823425 793.618774,812.638550 
z"/>
<path fill="#016C40" opacity="1.000000" stroke="none" 
	d="
M897.947876,864.950195 
	C860.806335,889.468567 823.976746,913.805786 787.147461,938.143494 
	C786.313538,938.694519 785.463684,939.223816 784.653076,939.807495 
	C779.856140,943.261414 774.740173,944.942139 769.359741,941.424072 
	C763.690002,937.716858 762.194580,932.069641 763.192566,925.651367 
	C764.330200,918.335327 768.054077,912.823975 774.369995,908.751038 
	C798.588196,893.133728 822.664246,877.296448 846.845581,861.621765 
	C878.570557,841.057007 910.344482,820.567749 942.099121,800.048706 
	C943.777832,798.963989 945.448425,797.863892 947.163391,796.838928 
	C953.533630,793.031555 956.882568,793.177490 961.059753,797.394470 
	C967.077759,803.470032 968.766968,809.303406 964.862488,814.750427 
	C961.347778,819.653687 957.321655,824.618652 952.458374,828.050476 
	C934.632019,840.629822 916.362488,852.581299 897.947876,864.950195 
z"/>
<path fill="#01221C" opacity="1.000000" stroke="none" 
	d="
M619.952026,363.070312 
	C627.155762,362.687256 634.359436,362.304230 642.037537,361.895966 
	C642.037537,371.957214 642.037537,381.048676 642.037537,390.708496 
	C664.359436,391.302460 682.473328,398.991180 690.013306,421.239960 
	C697.073242,442.072388 694.153503,461.134003 674.363281,475.605713 
	C677.226257,477.497009 679.153625,479.001038 681.277466,480.138123 
	C706.457825,493.619720 709.190430,518.929443 701.202515,541.371704 
	C694.267578,560.855591 678.378601,568.537170 659.532898,571.867188 
	C655.292175,572.616516 650.934998,572.909607 646.623535,572.990906 
	C643.269165,573.054199 641.865417,574.109192 641.969116,577.656067 
	C642.168457,584.477173 641.813965,591.314636 642.024841,598.134949 
	C642.140930,601.889160 640.751282,603.300415 637.085693,602.984253 
	C631.446838,602.497742 625.794312,602.169128 620.103638,600.907593 
	C620.084045,592.237305 620.197876,584.431091 620.037720,576.630554 
	C620.013306,575.442078 618.719543,574.279724 618.012817,573.105347 
	C615.633728,573.044495 613.254578,572.983582 610.187744,572.947632 
	C609.500061,572.972595 609.010864,573.035767 609.010864,573.035767 
	C606.630432,573.017700 604.249939,572.999634 600.996521,573.043213 
	C599.687256,574.188232 598.889282,575.266907 598.875488,576.355591 
	C598.805054,581.903076 598.937500,587.453247 598.998901,593.002441 
	C598.655945,602.961121 598.655945,602.961121 588.696350,602.959961 
	C577.686523,602.958679 577.734070,602.958557 577.711792,592.057373 
	C577.701965,587.232422 577.298645,582.405823 577.367615,577.584167 
	C577.420105,573.911804 576.000671,572.746826 572.318542,572.825378 
	C561.328552,573.059631 550.330688,572.937012 539.335938,572.930969 
	C538.184875,572.930359 537.033997,572.777771 534.994019,572.632263 
	C535.434570,562.563049 535.871216,552.584595 536.335938,541.963623 
	C542.282959,541.963623 548.057495,541.986206 553.831787,541.958801 
	C564.871826,541.906494 565.074402,541.715393 565.069458,531.067078 
	C565.053528,497.083527 564.930481,463.099487 565.102661,429.116913 
	C565.127441,424.228729 563.659424,422.677155 558.845703,422.961609 
	C552.537781,423.334381 546.183105,423.192566 539.865601,422.901917 
	C538.559265,422.841797 536.256409,421.188507 536.227905,420.216278 
	C535.951294,410.780396 536.061646,401.333130 536.061646,391.312561 
	C548.959045,391.312561 562.203674,391.312561 576.147461,391.312561 
	C576.147461,381.424744 576.147461,372.084167 576.147461,362.515320 
	C583.947754,362.515320 591.044434,362.515320 598.474243,363.131348 
	C598.807434,372.666260 598.807434,381.585175 598.807434,390.736511 
	C606.030090,390.736511 612.881958,390.736511 619.952026,390.736511 
	C619.952026,381.271576 619.952026,372.170959 619.952026,363.070312 
M653.731201,494.671112 
	C647.491272,493.057404 641.321777,490.510559 634.996033,490.032776 
	C623.403442,489.157227 611.716553,489.582550 600.073425,489.290222 
	C596.618469,489.203430 595.924438,490.769775 595.947388,493.822723 
	C596.062500,509.138580 596.007751,524.455688 596.047974,539.772278 
	C596.051331,541.049255 596.316406,542.325562 596.615112,544.983643 
	C608.873230,544.983643 621.004089,545.658386 633.011414,544.732056 
	C640.280273,544.171265 647.850098,542.143372 654.403625,538.960388 
	C663.803711,534.394897 668.009399,525.545776 668.208435,515.178650 
	C668.397095,505.346558 662.688049,499.196777 653.731201,494.671112 
M646.999390,422.226562 
	C645.244446,421.713898 643.511902,420.862213 641.730896,420.745026 
	C632.120667,420.112457 622.502075,419.568237 612.878784,419.186157 
	C607.617004,418.977234 602.340088,419.148865 596.635071,419.148865 
	C596.635071,434.731445 596.635071,449.598938 596.635071,464.730469 
	C609.121399,464.730469 621.260437,465.096802 633.356262,464.534180 
	C637.661926,464.333954 642.143127,462.413544 646.061646,460.358398 
	C661.040955,452.502350 662.864136,429.991211 646.999390,422.226562 
z"/>
<path fill="#65BC64" opacity="1.000000" stroke="none" 
	d="
M619.707031,363.394348 
	C619.952026,372.170959 619.952026,381.271576 619.952026,390.736511 
	C612.881958,390.736511 606.030090,390.736511 598.807434,390.736511 
	C598.807434,381.585175 598.807434,372.666260 598.834595,363.304504 
	C599.230652,368.067200 599.845215,373.269348 599.918396,378.479095 
	C600.080383,390.023895 599.969543,390.025421 611.439880,390.024536 
	C619.024841,390.023956 618.970398,390.023438 619.045349,382.551575 
	C619.108276,376.273071 619.317566,369.996033 619.707031,363.394348 
z"/>
<path fill="#48A858" opacity="1.000000" stroke="none" 
	d="
M618.082397,573.509766 
	C618.719543,574.279724 620.013306,575.442078 620.037720,576.630554 
	C620.197876,584.431091 620.084045,592.237305 619.994202,600.503601 
	C619.615173,597.058533 619.252258,593.154663 619.000366,589.243652 
	C618.671448,584.136780 618.430603,579.024292 618.082397,573.509766 
z"/>
<path fill="#48A858" opacity="1.000000" stroke="none" 
	d="
M599.260376,592.679749 
	C598.937500,587.453247 598.805054,581.903076 598.875488,576.355591 
	C598.889282,575.266907 599.687256,574.188232 600.554688,573.108154 
	C600.497803,579.526672 600.009827,585.941833 599.260376,592.679749 
z"/>
<path fill="#48A858" opacity="1.000000" stroke="none" 
	d="
M609.111084,573.162354 
	C609.010864,573.035767 609.500061,572.972595 609.744751,573.003296 
	C609.989441,573.034058 609.646851,573.354919 609.646851,573.354919 
	C609.646851,573.354919 609.211304,573.288940 609.111084,573.162354 
z"/>
<path fill="#3F9D53" opacity="1.000000" stroke="none" 
	d="
M654.079224,494.809448 
	C662.688049,499.196777 668.397095,505.346558 668.208435,515.178650 
	C668.009399,525.545776 663.803711,534.394897 654.403625,538.960388 
	C647.850098,542.143372 640.280273,544.171265 633.011414,544.732056 
	C621.004089,545.658386 608.873230,544.983643 596.615112,544.983643 
	C596.316406,542.325562 596.051331,541.049255 596.047974,539.772278 
	C596.007751,524.455688 596.062500,509.138580 595.947388,493.822723 
	C595.924438,490.769775 596.618469,489.203430 600.073425,489.290222 
	C611.716553,489.582550 623.403442,489.157227 634.996033,490.032776 
	C641.321777,490.510559 647.491272,493.057404 654.079224,494.809448 
z"/>
<path fill="#3F9D53" opacity="1.000000" stroke="none" 
	d="
M647.349243,422.380280 
	C662.864136,429.991211 661.040955,452.502350 646.061646,460.358398 
	C642.143127,462.413544 637.661926,464.333954 633.356262,464.534180 
	C621.260437,465.096802 609.121399,464.730469 596.635071,464.730469 
	C596.635071,449.598938 596.635071,434.731445 596.635071,419.148865 
	C602.340088,419.148865 607.617004,418.977234 612.878784,419.186157 
	C622.502075,419.568237 632.120667,420.112457 641.730896,420.745026 
	C643.511902,420.862213 645.244446,421.713898 647.349243,422.380280 
z"/>
</svg>
